<?xml version="1.0" encoding="UTF-8"?>
<svg width="1200pt" height="1200pt" version="1.1" viewBox="0 0 1200 1200" xmlns="http://www.w3.org/2000/svg">
 <path d="m140.69 39.852h918.62c33.805 0 61.488 27.684 61.488 61.488v682.06c0 31.574-24.121 57.781-54.828 61.129l-38.879-96.914c11.34-27.145 17.605-56.918 17.605-88.129 0-126.36-102.46-228.82-228.82-228.82s-228.82 102.46-228.82 228.82c0 31.25 6.2656 61.02 17.605 88.129l-38.988 97.273h-424.98c-33.805 0-61.488-27.684-61.488-61.488v-682.06c0-33.84 27.684-61.488 61.488-61.488zm851.48 765.58 120.64 300.89-111.46-26.891-51.875 80.711-102.1-273.96c58.07-7.9922 109.15-37.727 144.79-80.75zm-176.26-320.8c96.59 0 174.89 78.301 174.89 174.89 0 96.59-78.301 174.89-174.89 174.89s-174.89-78.301-174.89-174.89c0-96.59 78.301-174.89 174.89-174.89zm-176.26 320.8-120.64 300.89 111.46-26.891 51.875 80.711 102.1-273.96c-58.07-7.9922-109.15-37.727-144.79-80.75zm-437.44-575.39c-14.902 0-26.965-12.059-26.965-26.965 0-14.902 12.059-26.965 26.965-26.965h795.64c14.902 0 26.965 12.059 26.965 26.965 0 14.902-12.059 26.965-26.965 26.965zm0 495.83c-14.902 0-26.965-12.059-26.965-26.965 0-14.902 12.059-26.965 26.965-26.965h221.94c14.902 0 26.965 12.059 26.965 26.965 0 14.902-12.059 26.965-26.965 26.965zm0-165.28c-14.902 0-26.965-12.059-26.965-26.965 0-14.902 12.059-26.965 26.965-26.965h221.94c14.902 0 26.965 12.059 26.965 26.965 0 14.902-12.059 26.965-26.965 26.965zm0-165.28c-14.902 0-26.965-12.059-26.965-26.965 0-14.902 12.059-26.965 26.965-26.965h795.64c14.902 0 26.965 12.059 26.965 26.965 0 14.902-12.059 26.965-26.965 26.965z" fill-rule="evenodd"/>
</svg>
