<?xml version="1.0" encoding="UTF-8"?>
<svg width="1200pt" height="1200pt" version="1.1" viewBox="0 0 1200 1200" xmlns="http://www.w3.org/2000/svg">
 <path d="m150 637.5h-75v450h75c20.711 0 37.5-16.789 37.5-37.5v-375c0-20.711-16.789-37.5-37.5-37.5z"/>
 <path d="m1082 687.66c-27.082-16.184-59.895-16.879-87.617-1.9062l-245.57 132.01c-5.7305 46.246-44.824 82.27-92.586 82.27h-150.75c-10.363 0-18.75-8.3828-18.75-18.746 0-10.363 8.3867-18.746 18.75-18.746l150.75-0.003906c31.02 0 56.25-25.227 56.25-56.242 0-30.426-24.324-55.137-54.527-56.07-11.223-0.12891-192.45-0.17578-192.45-0.17578l-64.016-64.004c-7.0312-7.0312-16.57-10.984-26.516-10.984l-150 0.003906v375.02h66.211l121.29 37.422c50.391 16.203 104.29 37.496 164.01 37.496 53.996 0 107.21-17.906 153.13-53.094l357.13-236.36c23.93-16.406 38.23-43.5 38.23-72.43 0-31.234-16.059-59.426-42.977-75.465z"/>
 <path d="m301.14 441.98c-2.3086 8.5781-1.0742 17.723 3.3867 25.406l67.27 115.46c9.2461 15.82 29.523 21.273 45.359 12.141l17.516-10.012c19.777 15.348 41.648 27.914 64.73 37.207v19.484c0 18.41 14.926 33.336 33.332 33.336h134.54c18.41 0 33.332-14.926 33.332-33.336v-19.484c23.078-9.293 44.953-21.859 64.727-37.207l17.516 10.012c15.918 9.1641 36.148 3.6953 45.359-12.141l67.27-115.46c4.457-7.6797 5.6953-16.828 3.3867-25.406-2.2969-8.5781-7.9258-15.902-15.641-20.312l-17.156-9.8164c1.8047-12.418 2.7148-24.754 2.7148-36.848s-0.91016-24.43-2.7188-36.852l17.156-9.8164c7.7148-4.4102 13.348-11.734 15.641-20.312 2.3125-8.5742 1.0742-17.719-3.3828-25.402l-67.27-115.46c-9.2422-15.836-29.523-21.242-45.359-12.141l-17.516 10.008c-19.777-15.348-41.652-27.914-64.73-37.207v-19.484c0-18.406-14.922-33.332-33.332-33.332h-134.54c-18.406 0-33.332 14.926-33.332 33.332v19.484c-23.078 9.293-44.953 21.859-64.73 37.207l-17.516-10.008c-15.867-9.0664-36.098-3.6953-45.359 12.141l-67.266 115.46c-4.4609 7.6836-5.6953 16.828-3.3867 25.406 2.2969 8.5781 7.9297 15.902 15.641 20.312l17.156 9.8125c-1.8086 12.422-2.7188 24.758-2.7188 36.852s0.91016 24.43 2.7188 36.848l-17.156 9.8164c-7.7148 4.4102-13.348 11.734-15.641 20.312zm298.86-48.227c-41.344 0-75-33.637-75-75 0-34.848 24-63.953 56.25-72.336v-2.6641c0-10.363 8.3867-18.75 18.75-18.75s18.75 8.3867 18.75 18.75v2.6641c32.25 8.3828 56.25 37.488 56.25 72.336 0 10.363-8.3867 18.75-18.75 18.75s-18.75-8.3867-18.75-18.75c0-20.672-16.809-37.5-37.5-37.5s-37.5 16.828-37.5 37.5 16.809 37.5 37.5 37.5c41.344 0 75 33.637 75 75 0 34.848-24 63.953-56.25 72.336v2.6641c0 10.363-8.3867 18.75-18.75 18.75s-18.75-8.3867-18.75-18.75v-2.6641c-32.25-8.3828-56.25-37.488-56.25-72.336 0-10.363 8.3867-18.75 18.75-18.75s18.75 8.3867 18.75 18.75c0 20.672 16.809 37.5 37.5 37.5s37.5-16.828 37.5-37.5-16.809-37.5-37.5-37.5z"/>
</svg>
