<?xml version="1.0" encoding="UTF-8"?>
<svg width="1200pt" height="1200pt" version="1.1" viewBox="0 0 1200 1200" xmlns="http://www.w3.org/2000/svg">
 <path d="m1152 980.48v23.438c-1.9219 4.2656-6.1406 7.0781-10.828 7.1719-6.4688 0-11.625 0.89062-15.984-3.5156h-0.046875c-2.2031-2.25-3.4688-5.2969-3.4688-8.4844v-18.609zm-416.68-360h-0.046875c-0.09375-4.3125 1.5469-8.4844 4.5469-11.531 3-3.0938 7.125-4.8281 11.391-4.8281 4.3125 0 8.4375 1.7344 11.438 4.8281 3 3.0469 4.6406 7.2188 4.5 11.531v59.016c-0.046875 12.516 10.078 22.734 22.594 22.828h214.26c30.188 0.23438 54.562 24.844 54.422 55.078v51.938c0 8.8125-7.125 15.938-15.938 15.938-8.7656 0-15.938-7.125-15.938-15.938v-51.938c0.046876-12.516-10.031-22.734-22.547-22.828h-214.26c-30.234-0.23438-54.562-24.844-54.469-55.078zm76.688-330v227.68h-90.891v-162.66c0-4.2656-1.6406-8.3438-4.6406-11.391-3-3-7.0781-4.7344-11.297-4.7344h-210.47c-4.2188 0-8.2969 1.7344-11.297 4.7344-3 3.0469-4.6406 7.125-4.6406 11.391v162.66h-90.891v-227.53c3.375 0.60938 6.7969 0.89062 10.219 0.89062 22.125 0 38.344-1.6875 54.469-20.016l-0.046875 0.046875c11.016 12.656 26.953 19.922 43.781 19.969 22.219 0 38.391-1.6875 54.469-20.016l-0.046875 0.046875c11.062 12.703 27.047 19.969 43.875 19.969 22.172 0 38.391-1.6875 54.469-20.016v0.046875c11.016 12.656 27.047 19.969 43.828 19.969 22.219 0 38.344-1.6875 54.469-20.016v0.046875c11.062 12.703 27.047 19.969 43.875 19.969 6.9375 0.1875 13.828-0.1875 20.719-1.0781zm16.781-95.719h-64.453v37.406c0 14.906 12.047 27.047 26.953 27.188 10.547 2.0625 21.469-0.89062 29.531-8.0156 5.1094-5.1094 7.9688-12 7.9688-19.172zm-393.19 0h-64.5v37.406c0.046874 14.906 12.047 27.047 27 27.188 10.547 2.0625 21.469-0.89062 29.531-8.0156 5.0625-5.1094 7.9219-12 7.9219-19.172zm98.297 0h-64.453v37.406c-0.046876 14.906 11.953 27.047 26.906 27.188 10.594 2.0156 21.516-0.9375 29.578-8.1094 5.1094-5.1094 7.9688-12 7.9688-19.172zm98.25 0h-64.359v37.406h-0.046876c0 14.906 12 27.047 26.906 27.188 10.594 2.0625 21.516-0.89062 29.625-8.0156 5.0156-5.1094 7.875-12 7.875-19.172zm98.344 0h-64.406v37.406c-0.046874 14.906 11.953 27.047 26.906 27.188 11.484 0 20.531 1.1719 29.531-8.0156 5.0625-5.1094 7.9219-12 7.9219-19.172zm-311.95-154.69h362.81l57.328 123.98c-3.1875-1.0781-6.6094-1.5938-9.9844-1.5938h-64.359c-6 0.046875-11.859 1.7812-16.922 5.0156-5.0625-3.2344-10.922-4.9688-16.969-5.0156h-64.359c-6.0469 0.046875-11.906 1.7812-16.969 5.0156-5.0625-3.2344-10.969-4.9688-16.969-5.0156h-64.406c-6 0.046875-11.906 1.7812-16.969 5.0156-5.0156-3.2344-10.875-4.9688-16.875-5.0156h-64.453c-6 0.046875-11.859 1.7812-16.922 5.0156-5.0625-3.2344-10.922-4.9688-16.969-4.9688h-64.453c-3.3281-0.046875-6.6562 0.46875-9.8438 1.5469zm270.71 478.08h-73.359v-146.58h73.359zm-105.23 0h-73.359v-146.58h73.359zm0 73.734c0-8.8125 7.125-15.938 15.938-15.938s15.938 7.125 15.938 15.938v163.18c0 8.8125-7.125 15.938-15.938 15.938s-15.938-7.125-15.938-15.938zm-410.68 217.45c0 8.8125-7.1719 15.938-15.938 15.938-8.8125 0-15.938-7.125-15.938-15.938v-51.938c-0.14062-30.234 24.234-54.844 54.422-55.078h214.26c12.562-0.046875 22.688-10.266 22.641-22.828v-59.062c0-8.7656 7.125-15.891 15.891-15.891 8.8125 0 15.938 7.125 15.938 15.891v59.062c0.14062 30.234-24.234 54.891-54.469 55.078h-214.26c-12.516 0.14062-22.594 10.312-22.547 22.828zm531.61 101.67v23.344c-1.9219 4.3125-6.1406 7.125-10.828 7.2188-6.375 0-11.531 0.89062-15.984-3.6094l-0.046875 0.046875c-2.2031-2.25-3.4688-5.25-3.4688-8.4375v-18.562zm0 61.406v117.98l-66.562-0.046875v-71.438c0.046875-4.2656-1.6406-8.3438-4.5938-11.344-3-3.0469-7.0781-4.7344-11.344-4.7812h-53.859c-4.2656 0.046875-8.2969 1.7344-11.297 4.7812-3 3-4.6406 7.0781-4.6406 11.344v71.438h-66.562v-117.94c6.0469 1.2656 12.281 1.7344 18.469 1.3594 10.125 0 20.016-3.5625 27.797-10.125 9.9375 8.0625 22.734 11.719 35.391 10.125 10.172 0 20.016-3.6094 27.797-10.125 9.9375 8.0625 22.688 11.719 35.391 10.125 10.172 0 20.016-3.5625 27.797-10.125 9.9375 8.0625 22.734 11.719 35.391 10.125 3.6562 0 7.3125-0.46875 10.875-1.3594zm-98.438 117.98h-21.984l-0.046875-55.406h21.984zm-120.42-156-0.046875-23.391h30.328v18.609-0.046875c0 6.6094-5.2969 11.953-11.859 12-6.8906 0-14.766 1.1719-18.469-7.2188zm-9.4688-55.641 25.266-54.75h187.26l25.266 54.75zm166.26 50.812-0.046876-18.562h-31.266v18.609l0.046874-0.046875c0 6.5625 5.25 11.906 11.766 12 6.4688 0 11.625 0.89062 15.984-3.6094l0.046876 0.046875c2.2031-2.25 3.4688-5.25 3.4688-8.4375zm-94.594-18.562v18.609-0.046875c0 6.6094 5.2969 11.953 11.859 12 6.375 0 11.531 0.89062 15.938-3.6094v0.046875c2.25-2.2031 3.5156-5.25 3.5156-8.4375v-18.562zm-281.44 69.469v23.438c-1.9688 4.2656-6.1875 7.0312-10.875 7.1719-6.375 0-11.531 0.89062-15.938-3.5156-2.25-2.25-3.5156-5.2969-3.5156-8.4844v-18.609zm0 61.453v117.98h-66.562v-71.438c0-4.2656-1.6406-8.3438-4.6406-11.391-3-3-7.0312-4.7344-11.297-4.7344h-53.953c-4.2188 0-8.2969 1.7344-11.297 4.7344-3 3.0469-4.6406 7.125-4.6406 11.391v71.438h-66.562v-117.98c6.0938 1.3125 12.328 1.7812 18.516 1.4062 10.172 0 19.969-3.6094 27.75-10.125 9.9375 8.0156 22.734 11.672 35.438 10.125 10.172 0 20.016-3.6094 27.797-10.125 9.9375 8.0156 22.734 11.672 35.391 10.125 10.172-0.046875 20.016-3.6094 27.797-10.125 9.9375 8.0625 22.688 11.672 35.391 10.125 3.6562 0 7.3125-0.46875 10.875-1.4062zm-98.438 117.98h-22.078v-55.312h22.078zm-120.52-156v-23.438h30.328v18.609c0 6.5625-5.25 11.906-11.812 12-6.9844 0-14.859 1.1719-18.516-7.1719zm-9.4688-55.641 25.266-54.703h187.36l25.266 54.656zm166.26 50.812-0.046875-18.609h-31.312v18.609c0 6.5625 5.2969 11.953 11.859 12 6.375 0 11.531 0.89062 15.938-3.5156 2.25-2.25 3.5156-5.2969 3.5156-8.4844zm-94.594-18.609v18.609c0 6.5625 5.2969 11.953 11.859 12 6.375 0 11.625 0.89062 15.984-3.5156h0.046875c2.2031-2.25 3.4219-5.2969 3.4688-8.4844v-18.609zm1041.9 61.453v117.98h-66.562v-71.438c0-4.2656-1.6406-8.3438-4.6406-11.391-3-3-7.0781-4.7344-11.297-4.7344h-53.906c-4.2188 0-8.2969 1.7344-11.297 4.7344-3 3.0469-4.6406 7.125-4.6406 11.391v71.438h-66.562v-117.98c6.0469 1.3125 12.281 1.7812 18.469 1.4062 10.172 0 20.016-3.6094 27.797-10.125 9.9375 8.0625 22.734 11.719 35.438 10.125 10.125 0 19.969-3.6094 27.703-10.125 9.9844 8.0156 22.734 11.672 35.438 10.125 10.172 0 20.016-3.5625 27.797-10.125 9.9375 8.0625 22.734 11.672 35.438 10.125 3.6562 0 7.2656-0.46875 10.828-1.4062zm-98.438 117.98h-21.984l-0.046875-55.312h21.984zm-120.47-156v-23.438h30.328v18.609c0 6.5625-5.2969 11.906-11.859 12-6.9844 0-14.766 1.1719-18.469-7.1719zm-9.4688-55.641 25.266-54.656 187.31-0.046875 25.266 54.656zm166.26 50.812-0.046875-18.609h-31.406v18.609c0.046875 6.5625 5.2969 11.906 11.859 12 6.4688 0 11.625 0.89062 15.984-3.5156h0.046875c2.2031-2.25 3.4688-5.2969 3.4688-8.4844zm-94.5-18.609v18.609h-0.046875c0 6.5625 5.2969 11.953 11.906 12 6.375 0 11.531 0.89062 15.938-3.5156h-0.046875c2.25-2.25 3.5156-5.2969 3.5156-8.4844v-18.609z" fill-rule="evenodd"/>
</svg>
