<?xml version="1.0" encoding="UTF-8"?>
<svg width="1200pt" height="1200pt" version="1.1" viewBox="0 0 1200 1200" xmlns="http://www.w3.org/2000/svg">
 <path d="m429.94 304.64-18.984 97.219-39.656-30.281c-7.5-5.7188-16.406-8.2969-25.172-8.0156l18.422-73.547 65.344 14.578zm-9.7031 116.39-2.7656-2.1094-0.65625 3.375c1.125-0.42188 2.25-0.84375 3.4219-1.2656zm156.71 137.02c-12.656-50.531-29.719-118.45-73.547-138.14-7.4531-3.375-20.062-3.375-34.219-1.3594-12.047 1.6875-25.078 4.8281-37.078 8.625-0.1875 0.046875-0.32812 0.14062-0.51562 0.1875-5.2969 1.6875-10.359 3.5156-15.094 5.3438-0.51562 0.1875-1.2188 2.25-2.8594 5.9062l-0.046875 0.1875c-0.1875 0.84375-0.5625 1.5938-1.0781 2.2031-0.60938 1.2656-1.3125 2.625-2.1094 4.125-4.875 9.0938-11.484 21.375-19.266 34.266-10.875 18-23.766 36.375-36.328 46.312 0.98438 3.9844 2.25 7.5 3.8906 10.922 0.9375 1.9219 2.0156 3.6562 3.1875 5.25 4.3594 5.9062 10.266 9.3281 17.531 9.8906 7.8281 0.60938 17.344-1.9219 28.359-7.875 8.25-4.4531 17.203-10.828 26.859-19.219 0.1875-0.1875 0.375-0.375 0.60938-0.51562 11.297-9.8438 23.531-22.453 36.609-38.016 1.6875-2.0156 4.7344-2.2969 6.75-0.5625 1.7344 1.4531 2.1562 3.8438 1.2656 5.7656-13.688 28.641-16.875 55.406-12.656 78.609 4.7812 25.969 18.891 47.438 38.016 61.781 2.1094 1.5938 2.5781 4.5938 0.9375 6.75-1.5938 2.1094-4.5938 2.5312-6.75 0.9375-21-15.75-36.516-39.281-41.719-67.734-3.3281-18.094-2.4844-38.203 3.7969-59.531-6.3281 6.6562-12.469 12.609-18.375 17.859 0.32812 4.3125-0.046875 8.6719-1.125 12.938-1.2656 4.9688-3.5156 9.7031-6.7969 13.969-6.5625 8.625-16.078 13.734-26.062 15.094-0.9375 0.14062-1.875 0.23438-2.8125 0.28125l6.9844 5.3438c8.625 6.5625 13.734 16.078 15.094 26.062s-1.125 20.531-7.6875 29.156-16.078 13.734-26.062 15.094c-1.3594 0.1875-2.7188 0.28125-4.0312 0.32812 4.8281 5.5781 7.7344 12.375 8.7188 19.406 1.2656 9.3281-0.98438 19.172-7.0312 27.281-0.14062 0.1875-0.28125 0.375-0.42188 0.5625-6.1875 7.9688-15.094 12.75-24.469 14.016-4.9688 0.65625-10.078 0.32812-14.953-1.0312 26.156 22.172 49.594 24.188 73.219 26.203 24 2.0156 48.188 4.0781 75.609 25.031l158.48 120.98c-42.328 9.7031-88.594-1.7812-121.5-34.688-17.062-17.062-29.062-38.438-34.594-61.828-0.98438-4.1719-5.1562-6.75-9.3281-5.7188-4.1719 0.98438-6.75 5.1562-5.7188 9.3281 6.2344 26.156 19.641 50.062 38.719 69.188 28.453 28.453 65.812 42.656 103.12 42.656 37.359 0 74.719-14.203 103.12-42.656 27.562-27.562 42.703-64.172 42.703-103.12s-15.188-75.609-42.703-103.12c-27.562-27.562-64.172-42.703-103.12-42.703h-0.5625c-4.2656 0-7.7344 3.5156-7.7344 7.7812s3.4688 7.7344 7.7344 7.7344h0.51562c34.828 0 67.547 13.547 92.156 38.203 21.375 21.375 34.359 48.844 37.453 78.469l-156.71-119.62c-12-4.9688-18.375-30.422-26.438-62.438zm-314.06-300.61c0.28125 0.046875 0.51562 0.09375 0.79688 0.1875l38.25 8.5312 33.656-21.375c2.25-1.4062 5.25-0.75 6.6562 1.5l21.375 33.656 72.094 16.125 33.656-21.375c2.25-1.4062 5.25-0.75 6.6562 1.5l21.375 33.656 40.688 9.0938c0.28125 0.046875 0.51562 0.09375 0.79688 0.1875 3.3281 0.65625 6.6562-0.09375 9.3281-1.7812 2.7188-1.7344 4.7812-4.4062 5.5781-7.6875 0.046875-0.28125 0.09375-0.51562 0.1875-0.79688l23.719-106.12c0.75-3.4688 0.046875-6.8906-1.7344-9.7031s-4.5938-4.9219-8.0156-5.6719l-38.625-8.625-33.656 21.375c-2.25 1.4062-5.25 0.75-6.6562-1.5l-21.375-33.656-72.094-16.125-33.656 21.375c-2.25 1.4062-5.25 0.75-6.6562-1.5l-21.375-33.656-41.203-9.1875c-3.4688-0.75-6.8906-0.046875-9.7031 1.7344s-4.9219 4.5938-5.6719 8.0156l-23.719 106.12c-0.046875 0.28125-0.09375 0.51562-0.1875 0.79688-0.65625 3.3281 0.09375 6.6562 1.7812 9.3281 1.7344 2.7188 4.4062 4.7812 7.6875 5.5781zm78.188 116.44c-0.14062 0.046875-0.32812 0.09375-0.46875 0.09375-6.4688 1.5-12.516 5.2031-16.828 10.875-4.9688 6.5156-6.7969 14.438-5.8125 22.031 1.0312 7.5469 4.875 14.719 11.391 19.688l56.391 43.078c6.3281-10.734 11.906-21.141 16.125-29.062 0.84375-1.5469 1.5938-3 2.3438-4.3594l4.6406-23.859-43.406-33.141c-6.5156-4.9688-14.438-6.7969-22.031-5.8125-0.79688 0.09375-1.5938 0.23438-2.3906 0.42188zm609.98 350.68c0-8.6719-3.5156-16.5-9.1875-22.172s-13.547-9.2344-22.172-9.2344h-29.719c-3.0938-12.422-7.125-24.609-12.094-36.562-4.875-11.766-10.641-23.297-17.297-34.359l21-21c6.0938-6.0938 9.1875-14.156 9.1875-22.219s-3.0469-16.078-9.1875-22.219l-46.688-46.688c-6.0938-6.0938-14.156-9.1875-22.219-9.1875s-16.078 3.0469-22.219 9.1875l-21 21c-11.109-6.6562-22.594-12.422-34.359-17.297-11.906-4.9219-24.141-8.9531-36.562-12.094v-29.719c0-8.625-3.5156-16.5-9.2344-22.172-5.6719-5.6719-13.547-9.2344-22.172-9.2344h-66.047c-4.2656 0-7.7344 3.4688-7.7344 7.7344s3.4688 7.7344 7.7344 7.7344h66.047c4.3594 0 8.3906 1.7812 11.25 4.6875 2.9062 2.9062 4.6875 6.8906 4.6875 11.25v35.812c0 3.8906 2.8594 7.125 6.6094 7.6406 13.406 3.0469 26.672 7.2656 39.516 12.609 12.656 5.25 24.938 11.578 36.797 18.984 3 2.25 7.3125 2.0156 10.078-0.75l25.312-25.312c3.0938-3.0938 7.1719-4.6406 11.297-4.6406 4.0781 0 8.2031 1.5469 11.297 4.6406l46.688 46.688c3.0938 3.0938 4.6406 7.1719 4.6406 11.297 0 4.0781-1.5469 8.2031-4.6406 11.297l-25.312 25.312c-2.7656 2.7656-3 7.0312-0.75 10.078 7.4531 11.812 13.781 24.141 18.984 36.797 5.3438 12.891 9.5156 26.109 12.609 39.516 0.51562 3.75 3.75 6.6094 7.6406 6.6094h35.812c4.3594 0 8.3906 1.7812 11.25 4.6875 2.9062 2.9062 4.7344 6.8906 4.7344 11.25v66.047c0 4.3594-1.8281 8.3906-4.6875 11.25-2.9062 2.9062-6.8906 4.7344-11.25 4.6875h-35.812c-3.8906 0-7.125 2.8594-7.6406 6.6094-3.0469 13.453-7.2656 26.672-12.609 39.516-5.25 12.656-11.578 24.938-18.984 36.797-2.25 3-2.0156 7.3125 0.75 10.078l25.312 25.312c3.0938 3.0938 4.6406 7.1719 4.6406 11.297 0 4.0781-1.5469 8.2031-4.6406 11.297l-46.688 46.688c-3.0938 3.0938-7.1719 4.6406-11.297 4.6406-4.0781 0-8.2031-1.5469-11.297-4.6406l-25.312-25.312c-2.7656-2.7656-7.0312-3-10.078-0.75-11.812 7.4531-24.141 13.781-36.797 18.984-12.891 5.3438-26.109 9.5156-39.516 12.609-3.75 0.5625-6.6094 3.75-6.6094 7.6406v35.812c0 4.3594-1.7812 8.3438-4.6875 11.25s-6.8906 4.6875-11.25 4.6875h-66.047c-4.3594 0-8.3906-1.8281-11.25-4.6875-2.9062-2.9062-4.7344-6.8906-4.6875-11.25v-35.812c0-3.8906-2.8594-7.125-6.6094-7.6406-13.453-3.0938-26.672-7.2656-39.516-12.609-12.656-5.25-24.938-11.578-36.797-18.984-3-2.25-7.3125-2.0156-10.078 0.75l-25.312 25.312c-3.0938 3.0938-7.1719 4.6406-11.297 4.6406-4.0781 0-8.2031-1.5469-11.297-4.6406l-46.688-46.688c-3.0938-3.0938-4.6406-7.1719-4.6406-11.297 0-4.0781 1.5469-8.2031 4.6406-11.297l25.312-25.312c2.7656-2.7656 3-7.0312 0.75-10.078-7.4531-11.859-13.781-24.141-18.984-36.797-5.3438-12.891-9.5156-26.109-12.609-39.516-0.5625-3.75-3.75-6.6094-7.6406-6.6094h-35.812c-4.2656 0-7.7344 3.4688-7.7344 7.7344s3.4688 7.7344 7.7344 7.7344h29.719c3.0938 12.422 7.125 24.609 12.094 36.562 4.875 11.766 10.641 23.297 17.297 34.359l-21 21c-6.0938 6.0938-9.1875 14.156-9.1875 22.219s3.0469 16.078 9.1875 22.219l46.688 46.688c6.0938 6.0938 14.156 9.1875 22.219 9.1875s16.078-3.0469 22.219-9.1875l21-21c11.109 6.6562 22.594 12.422 34.359 17.297 11.906 4.9219 24.141 8.9531 36.562 12.094v29.719c0 8.6719 3.5156 16.5 9.1875 22.172s13.547 9.2344 22.172 9.1875h66.047c8.625 0 16.5-3.5156 22.172-9.1875s9.1875-13.5 9.1875-22.172v-29.719c12.422-3.0938 24.609-7.125 36.562-12.094 11.766-4.875 23.297-10.641 34.359-17.297l21 21c6.0938 6.0938 14.156 9.1875 22.219 9.1875s16.078-3.0469 22.219-9.1875l46.688-46.688c6.0938-6.0938 9.1875-14.156 9.1875-22.219s-3.0469-16.078-9.1875-22.219l-21-21c6.6562-11.109 12.422-22.594 17.297-34.359 4.9219-11.906 8.9531-24.141 12.094-36.562h29.719c8.6719 0 16.5-3.5156 22.172-9.1875s9.2344-13.547 9.1875-22.172zm-689.9-94.453c0.1875 0.09375 0.32812 0.23438 0.46875 0.375l12.141 9.2344c0.09375 0.09375 0.1875 0.14062 0.32813 0.23438l50.719 38.719c0.09375 0.09375 0.23437 0.14062 0.32812 0.23438l16.312 12.469c0.09375 0.046875 0.1875 0.14062 0.28125 0.1875l3.9375 3c6.0469 4.5938 13.406 6.3281 20.438 5.3906s13.688-4.5469 18.281-10.594 6.3281-13.406 5.3906-20.438-4.5469-13.688-10.594-18.281l-13.688-10.453c-24.422-18.328-49.641-37.172-73.969-56.109-5.2969-2.9531-11.297-3.9375-17.062-3.1875-6.9375 0.9375-13.5 4.4531-18.094 10.359-0.09375 0.14062-0.23438 0.32812-0.375 0.46875-4.4531 6-6.1406 13.266-5.2031 20.203s4.4531 13.5 10.359 18.094zm12.75 21.844-7.7344 30.844c-12.469 49.781-18.047 81.281-17.109 101.3 0.89062 18.094 7.4062 26.062 19.266 30.047 24.656 8.25 39.375-14.344 48.75-42.328 6.8438-20.344 10.875-43.688 13.875-60.938 0.51563-2.9062 0.98438-5.6719 1.4531-8.2031-4.5-4.875-9.0938-10.359-13.781-16.547l-44.719-34.125zm36.234-216.94c-7.4531 0.98438-14.578 4.7812-19.5 11.156-0.09375 0.1875-0.23437 0.32812-0.375 0.46875-4.8281 6.4688-6.6094 14.297-5.625 21.75 1.0312 7.5469 4.875 14.719 11.391 19.688l27.469 20.953 21.375 16.312-0.046876-0.28125c-0.5625-1.9219 0.14063-4.0781 1.875-5.2969 11.391-7.9219 23.531-24.656 34.125-41.859l-48.375-36.938c-0.1875-0.09375-0.32812-0.23438-0.51562-0.375-6.4688-4.8281-14.297-6.6094-21.75-5.625zm117.47 116.06c2.4844-3.2344 4.1719-6.8438 5.1094-10.5 0.1875-0.70312 0.32812-1.4531 0.46875-2.2031-7.3125 5.7656-14.297 10.406-20.812 13.969-7.2656 3.9375-14.016 6.5625-20.297 7.9688 5.0625 2.2031 10.5 2.8594 15.797 2.1562 7.5469-1.0312 14.719-4.875 19.688-11.391zm-151.45-28.969c-0.09375 0.14062-0.23438 0.32812-0.375 0.46875-4.8281 6.4688-6.6094 14.297-5.625 21.797 0.98437 7.4531 4.7812 14.578 11.156 19.5 0.1875 0.09375 0.32812 0.23438 0.46875 0.375l77.016 58.781 12.281 9.375c0.1875 0.09375 0.32813 0.23438 0.51563 0.375 6.4688 4.8281 14.297 6.6094 21.797 5.625 7.4531-0.98438 14.578-4.7812 19.5-11.156 0.09375-0.14062 0.23438-0.32812 0.375-0.46875 4.8281-6.4688 6.6094-14.297 5.625-21.797-1.0312-7.5469-4.875-14.719-11.391-19.688l-31.781-24.234c-8.8594-1.4062-16.125-6-21.609-13.453-1.3125-1.7812-2.4844-3.7031-3.5625-5.7656l-32.625-24.891c-0.1875-0.09375-0.32812-0.23438-0.51562-0.375-6.4688-4.8281-14.297-6.6094-21.797-5.625-7.4531 0.98438-14.578 4.7812-19.5 11.156z"/>
</svg>
