<?xml version="1.0" encoding="UTF-8"?>
<svg width="1200pt" height="1200pt" version="1.1" viewBox="0 0 1200 1200" xmlns="http://www.w3.org/2000/svg">
 <path d="m620.68 582.71c54.422 58.594 139.82 91.828 236.76 82.406 5.625-0.5625 11.156 1.4062 15.094 5.3906 3.9844 3.9844 5.9531 9.5156 5.3438 15.141-10.734 107.2-36.094 206.48-79.266 283.55-44.766 80.016-108.61 136.5-194.63 155.39-1.3125 0.28125-2.6719 0.42188-3.9844 0.42188l-4.1719-0.46875c-85.219-19.406-149.06-76.031-194.02-156-43.312-77.062-69-176.06-79.781-282.89-0.51562-5.625 1.4531-11.156 5.3906-15.141 3.9844-3.9844 9.5156-5.9531 15.141-5.4375 99.328 9.6562 186.56-25.453 240.74-86.766l21.609-111.19c-7.5938 0.09375-15.141 1.0781-22.641 3l-53.578 13.875c-7.5 1.9688-15.281 2.2969-22.828 1.125 0.046875-0.23438 0.14062-0.46875 0.1875-0.75 26.016-119.3 173.29-354.71 183.19-352.78 10.125 1.9688 58.266 274.5 37.688 395.72-0.046876 0.23438-0.046876 0.51562-0.09375 0.75-7.4062-1.7344-14.531-4.9688-20.766-9.5625l-44.484-32.953c-6.1875-4.5938-12.891-8.3438-19.875-11.25zm106.78 194.44c4.0312-7.9688 1.8281-17.672-5.2031-23.156s-16.969-5.2969-23.719 0.51562l-119.86 102.75-62.953-47.25c-5.0625-3.75-11.625-4.7812-17.531-2.6719-5.9531 2.1094-10.406 7.0312-11.953 13.125l-18.75 75c-1.7344 6.9844 0.65625 14.344 6.2344 18.938l112.5 93.797c4.3594 3.6562 10.219 5.1094 15.797 3.8906 5.625-1.1719 10.406-4.8281 12.938-9.9375zm-378.52-365.16c-4.6875 0-9.3281 0.375-14.016 1.0312l-117.66 18.047c-6.0469 0.9375-12.141-1.1719-16.359-5.5781s-6.0469-10.594-4.875-16.547c39.422-202.92 228.71-341.11 438.52-330.37-135.14 68.25-236.34 172.97-285.61 333.42zm409.82-309.47c199.13 68.297 323.44 267.71 283.92 471-1.1719 5.9531-5.1562 11.016-10.734 13.5-5.5781 2.5312-12 2.1562-17.25-0.98438l-102.38-60.75c-4.0781-2.4375-8.3438-4.5469-12.75-6.3281 8.5312-162.24-41.109-299.9-140.81-416.44zm103.59 409.64c-4.0312 0.09375-8.0156 0.46875-12.094 1.0781l-85.172 13.031c20.062-126.24 5.25-256.74-26.344-389.16 86.672 105.8 130.18 229.87 123.61 375.05zm-391.31-43.031-74.062-44.016c-3.6094-2.1094-7.3125-4.0312-11.109-5.625 45.141-143.9 135.71-239.16 255.98-302.48-80.391 111.94-142.4 228.19-170.81 352.13z" fill-rule="evenodd"/>
</svg>
