<?xml version="1.0" encoding="UTF-8"?>
<svg width="1200pt" height="1200pt" version="1.1" viewBox="0 0 1200 1200" xmlns="http://www.w3.org/2000/svg">
 <path d="m503.63 348.89c-21.984 21.938-35.719 50.766-38.906 81.703h269.16c-5.3906-51.938-40.125-96.094-89.297-113.58-49.219-17.438-104.06-5.0625-140.95 31.875zm155.53-64.406v-0.046875c-2.0156 2.0625-4.1719 3.9844-6.4219 5.8125 65.719 22.828 109.78 84.75 109.83 154.31 0 7.6875-6.2344 13.969-13.969 13.969h-298.55c-7.7344 0-13.969-6.2812-13.969-13.969 0-69.562 44.062-131.48 109.78-154.31-2.25-1.8281-4.3594-3.7969-6.4219-5.8125-24.188-24.188-31.406-60.609-18.328-92.203 13.125-31.641 43.969-52.219 78.188-52.219s65.109 20.578 78.188 52.219c13.125 31.594 5.8594 68.016-18.328 92.203zm-59.859-3.1406v-0.046875c27.047 0 50.344-19.125 55.641-45.656s-8.9062-53.109-33.891-63.469c-25.031-10.359-53.859-1.5938-68.906 20.906-15 22.5-12.047 52.453 7.0781 71.625 10.594 10.641 25.031 16.594 40.078 16.594zm-199.36 558.94h-25.125v92.109h25.125zm-39.094-27.938h53.062c3.7031 0 7.2656 1.4531 9.8906 4.0781s4.0781 6.1875 4.0781 9.8906v120.1-0.046875c0 7.7344-6.2344 14.016-13.969 14.016h-53.062c-7.7344-0.046875-13.969-6.2812-13.969-14.016v-120.05c0-7.7344 6.2344-13.969 13.969-13.969zm140.34-63.141-25.125-0.046875v183.24h25.125v-183.24zm-39.094-27.938h53.062c7.6875 0 13.922 6.1875 13.969 13.875v211.22c0 7.7344-6.2344 13.969-13.969 13.969h-53.062c-7.7344 0-13.969-6.2344-13.969-13.969v-211.22c0.046875-7.6875 6.2812-13.875 13.969-13.875zm140.29 60.938h-25.125v150.19h25.125zm-39-27.938h53.062-0.046875c7.6875 0.046875 13.922 6.2812 13.922 13.969v178.13c0 7.6875-6.2344 13.969-13.922 14.016h-53.016c-7.7344 0-14.016-6.2812-14.016-14.016v-178.13c0-7.6875 6.2812-13.969 14.016-13.969zm140.21-58.406h-25.078v236.53h25.078zm-39.047-27.938h53.062c7.6875 0 13.969 6.2344 13.969 13.969v264.47c0 7.7344-6.2812 13.969-13.969 14.016h-53.062c-3.7031 0-7.2656-1.5-9.8906-4.125-2.6719-2.625-4.125-6.1875-4.125-9.8906v-264.47c0-3.7031 1.4531-7.2656 4.0781-9.8906s6.1875-4.0781 9.8906-4.0781zm-336.37 330.32c-3.75 0.09375-7.4531-1.3125-10.172-3.9375-2.6719-2.625-4.2188-6.2812-4.2188-10.031 0-3.7969 1.5469-7.4062 4.2188-10.031 2.7188-2.625 6.4219-4.0781 10.172-3.9375h422.16c7.5469 0.1875 13.547 6.4219 13.547 13.969 0 7.5469-6 13.734-13.547 13.969zm-46.594-593.48h-42.141v40.172c0 6.5156-4.5 12.188-10.875 13.594-8.0156 1.8281-15.891 4.3125-23.484 7.4531-7.3125 3.0469-14.391 6.6562-21.094 10.828-5.5781 4.125-13.312 3.5625-18.188-1.3594l-28.406-28.406-29.859 29.766 28.453 28.453c4.5938 4.5938 5.3906 11.766 1.9219 17.297-8.625 13.688-14.953 28.688-18.609 44.438-1.0312 6.8438-6.9375 11.953-13.922 11.953h-40.125v42.141h40.172v-0.046876c6.5156 0 12.188 4.5 13.594 10.875 1.8281 8.0625 4.3125 15.891 7.5 23.484 3 7.3125 6.6094 14.391 10.781 21.094 4.1719 5.5781 3.5625 13.359-1.3125 18.234l-28.406 28.406 29.766 29.766 28.406-28.406c4.5938-4.5938 11.766-5.3906 17.297-1.9219 13.641 8.625 28.688 14.953 44.438 18.609 6.8438 1.0312 11.906 6.9375 11.906 13.875v40.172l42.188-0.046874v-40.172 0.046876c-0.046876-6.5625 4.5-12.188 10.875-13.641 8.0156-1.7812 15.891-4.3125 23.484-7.4531 7.3125-3.0469 14.344-6.6562 21.094-10.828 5.5312-4.125 13.266-3.5156 18.188 1.3594l28.406 28.406 29.812-29.766-28.406-28.406c-4.5938-4.5938-5.3906-11.766-1.9219-17.297 4.4062-6.9844 8.2031-14.344 11.344-21.938 3.0469-7.3125 5.4375-14.812 7.2656-22.5 0.98438-6.8438 6.9375-11.953 13.875-11.906h40.172v-42.141h-40.172c-6.5156 0-12.188-4.5-13.594-10.875-1.8281-8.0625-4.3125-15.891-7.5-23.484-3-7.3125-6.6094-14.391-10.781-21.094-4.1719-5.5781-3.6094-13.359 1.3125-18.234l28.406-28.406-29.812-29.766-28.406 28.406h0.046876c-4.5938 4.5938-11.812 5.3906-17.297 1.9219-6.9844-4.4062-14.344-8.2031-21.984-11.391-7.2656-3-14.766-5.4375-22.453-7.2188-6.8438-1.0312-11.953-6.8906-11.953-13.828zm27.703 146.53c23.25 23.25 26.859 59.719 8.5781 87.094-18.328 27.375-53.391 38.016-83.812 25.406-30.375-12.609-47.672-44.906-41.25-77.203 6.4688-32.297 34.781-55.547 67.688-55.547 18.328 0 35.859 7.2656 48.797 20.25zm-48.75-48.141-0.046874-0.046876c46.266 0.046876 86.062 32.719 95.109 78.094 9 45.375-15.281 90.797-58.031 108.47-42.75 17.672-92.062 2.6719-117.7-35.812-25.688-38.438-20.578-89.719 12.141-122.39 18.141-18.234 42.844-28.453 68.531-28.406zm820.4 145.87c-40.359-40.406-97.219-59.672-153.84-52.219-56.625 7.4062-106.55 40.781-135.1 90.234-28.594 49.453-32.484 109.41-10.641 162.14 21.844 52.781 66.984 92.344 122.16 107.16 55.172 14.766 114.05 3.0469 159.37-31.688 45.281-34.781 71.859-88.641 71.859-145.74 0.046875-48.75-19.312-95.484-53.812-129.89zm-122.21 341.39c11.766-0.42188 23.438-1.8281 34.922-4.1719v137.95c-0.09375 24.422-19.828 44.156-44.25 44.203h-700.18c-24.375-0.09375-44.156-19.828-44.203-44.203v-360.42c2.1562 0.70312 4.3125 1.4062 6.5156 2.0625v37.547c0 4.5938 1.5938 9.0469 4.5469 12.609 0.375 0.51562 0.79688 0.98438 1.2656 1.4531 3.7031 3.7031 8.7656 5.8125 14.016 5.8125h8.5781v187.64c0.046875 26.953 21.891 48.797 48.891 48.891h620.95c27-0.046875 48.891-21.891 48.938-48.891zm-27.984-422.16c-70.453 6.75-132.89 48.328-166.26 110.72-33.422 62.438-33.422 137.44 0 199.82 33.375 62.438 95.812 103.97 166.26 110.77v21.328c0 11.578-9.375 20.906-20.953 20.953h-620.95c-11.578-0.046876-20.953-9.375-21-20.953v-187.69h21.844c5.25 0 10.312-2.1094 14.016-5.8125 3.7031-3.75 5.7656-8.7656 5.7656-14.016v-37.547c11.672-3.4219 22.922-8.0625 33.609-13.875l26.531 26.531c3.7031 3.7031 8.7656 5.8125 14.016 5.8125s10.312-2.1094 14.016-5.8125l41.25-41.25v-0.046875c7.7344-7.7344 7.7344-20.297 0-28.031l-26.531-26.531h0.046875c2.9062-5.3438 5.5312-10.828 7.8281-16.406 2.3438-5.625 4.3594-11.344 6.0469-17.156h37.547c4.5938 0 9.0938-1.5938 12.609-4.5469 0.51562-0.42188 1.0312-0.84375 1.4531-1.2656 3.75-3.75 5.8125-8.7656 5.8125-14.016v-58.406c0-5.2969-2.0625-10.312-5.8125-14.062-3.7031-3.7031-8.7188-5.8125-13.969-5.8125h-37.594c-3.4219-11.672-8.0625-22.922-13.875-33.609l26.531-26.531h-0.046875c7.7344-7.7344 7.7344-20.297 0-28.031l-41.25-41.25c-3.7031-3.75-8.7656-5.8125-14.016-5.8125s-10.312 2.0625-14.016 5.8125l-26.531 26.531c-5.3438-2.9531-10.828-5.5781-16.453-7.875-5.5781-2.3438-11.297-4.3594-17.156-6.0469v-37.547c0.046875-4.5938-1.5938-9.0469-4.5469-12.609-0.375-0.51562-0.79688-0.98438-1.2656-1.4531-3.7031-3.7031-8.7188-5.8125-14.016-5.8125h-21.844v-261.28c0.046875-11.578 9.4219-20.953 21-21h620.95c11.578 0.046874 20.953 9.4219 20.953 21zm62.906 3.3281v-0.046875c-11.484-2.3438-23.203-3.7031-34.922-4.125v-451.97c-0.046875-27-21.938-48.891-48.938-48.938h-620.95c-27.047 0.046875-48.891 21.938-48.938 48.938v261.32h-8.5781c-5.25 0-10.312 2.1094-14.016 5.8594-3.75 3.7031-5.8594 8.7188-5.8594 13.969v37.5c-2.2031 0.65625-4.3594 1.3594-6.5156 2.0625v-360.37c0.09375-24.375 19.828-44.109 44.203-44.203h700.26c24.375 0.046875 44.156 19.781 44.25 44.203zm6.0938 152.95h0.046875c-6.2344-4.5469-7.5938-13.266-3.0469-19.453 4.5469-6.2344 13.219-7.5938 19.453-3.0469l89.766 65.672h-0.046875c6.2344 4.5469 7.5938 13.312 3.0469 19.5-0.9375 1.2188-2.0156 2.2969-3.2812 3.1875l-89.484 65.438c-6.2344 4.5469-14.906 3.1875-19.453-3.0469-4.5469-6.1875-3.1875-14.906 3.0469-19.453l74.344-54.328-74.344-54.328zm-113.91-22.5c6.2344-4.5469 14.953-3.2344 19.5 3 4.5469 6.1875 3.2344 14.953-3 19.5l-74.344 54.375 74.344 54.328c6.2344 4.5469 7.5469 13.266 3 19.453-4.5469 6.2344-13.266 7.5469-19.5 3l-89.484-65.438c-3.7031-2.5312-5.9531-6.75-6-11.297-0.09375-4.5 2.0625-8.7656 5.7656-11.438l89.672-65.625zm72.422-3.9844c2.0156-7.4062 9.6562-11.812 17.109-9.8438 7.4062 2.0156 11.812 9.6094 9.8906 17.062l-41.438 154.5c-1.9688 7.4531-9.6094 11.859-17.062 9.8438-7.4531-1.9688-11.859-9.6094-9.8906-17.062zm-281.58 411.24h-154.74c-2.6719 0.046875-4.7812 2.1562-4.8281 4.8281 0.046875 2.625 2.1562 4.7812 4.8281 4.8281h154.74c2.5312-0.14062 4.5469-2.25 4.5469-4.8281s-2.0156-4.6875-4.5469-4.8281zm-154.74-27.938c-17.859 0.32812-32.156 14.906-32.156 32.766s14.297 32.438 32.156 32.766h154.74c17.812-0.32812 32.109-14.906 32.109-32.766s-14.297-32.438-32.109-32.766z" fill-rule="evenodd"/>
</svg>
