<?xml version="1.0" encoding="UTF-8"?>
<svg width="1200pt" height="1200pt" version="1.1" viewBox="0 0 1200 1200" xmlns="http://www.w3.org/2000/svg">
 <path d="m922.32 62.762c-162.36-68.52-281.76 51.359-322.32 101.04-40.559-49.68-159.84-169.56-322.32-101.04-75.719 31.922-128.16 95.762-147.48 179.76-24.961 108.12 8.2812 234.6 84.719 322.32 17.281 19.801 37.559 40.078 59.52 60-4.0781 16.559-6.3594 33.602-6.3594 51 0 41.16 11.762 80.52 33.359 114.48l-45.84 45.84c-26.16 26.039-26.16 68.52 0 94.68 13.078 13.078 30.238 19.559 47.281 19.559 0.83984 0 1.6797-0.23828 2.5195-0.23828 0 0.83984-0.23828 1.6797-0.23828 2.5195 0 17.879 6.9609 34.68 19.559 47.281 12.602 12.602 29.398 19.559 47.281 19.559 0.83984 0 1.6797-0.23828 2.5195-0.23828-0.71875 18 5.6406 36.121 19.32 49.801 13.078 13.078 30.238 19.559 47.281 19.559 0.83984 0 1.6797-0.23828 2.5195-0.23828-0.71875 18 5.6406 36.238 19.32 49.922 13.078 13.078 30.238 19.559 47.281 19.559 17.039 0 34.32-6.4805 47.281-19.559l42.121-42.121 39.961 39.961c13.32 13.32 31.68 20.879 50.52 20.879h2.3984c18.48-0.60156 35.281-8.3984 47.039-21.961 10.559-12.121 16.441-27.84 16.441-44.039 0-0.83984-0.23828-1.6797-0.23828-2.5195 0.83984 0 1.6797 0.23828 2.5195 0.23828 17.879 0 34.68-6.9609 47.398-19.68 12.602-12.719 19.441-29.52 19.441-47.281 0-0.83984-0.23828-1.6797-0.23828-2.5195 0.83984 0 1.6797 0.23828 2.5195 0.23828 17.879 0 34.68-6.9609 47.281-19.68 12.602-12.602 19.559-29.398 19.559-47.281 0-0.83984-0.23828-1.6797-0.23828-2.5195 0.83984 0 1.6797 0.23828 2.5195 0.23828 17.879 0 34.68-6.9609 47.281-19.68 12.602-12.602 19.559-29.398 19.559-47.281 0-17.879-6.9609-34.559-19.559-47.398l-45.84-45.84c21.602-33.961 33.359-73.199 33.359-114.48 0-17.398-2.2812-34.441-6.3594-51 21.961-19.922 42.238-40.078 59.52-60 76.441-87.602 109.68-214.08 84.719-322.32-19.441-84-71.762-147.84-147.48-179.76zm-26.281 613.08c0 31.441-8.2812 61.68-23.52 88.199l-239.28-239.28c-1.0781-1.0781-2.1602-1.9219-3.2383-3 26.641-15.359 56.879-23.641 88.441-23.641 47.52 0 92.16 18.48 125.76 52.078 33.602 33.602 52.078 78.238 52.078 125.64zm32.039 207.72c0 8.2812-3.2383 15.961-9 21.84-11.641 11.762-32.039 11.762-43.68 0l-127.08-127.08c-7.0781-7.0781-18.48-7.0781-25.441 0-7.0781 7.0781-7.0781 18.48 0 25.441l127.08 127.08c5.7617 5.7617 9 13.559 9 21.961 0 8.3984-3.2383 15.961-9 21.84-11.641 11.762-32.039 11.762-43.68 0l-127.2-127.08c-7.0781-7.0781-18.48-7.0781-25.441 0-7.0781 7.0781-7.0781 18.48 0 25.441l127.08 127.08c5.8789 5.8789 9.1211 13.68 9.1211 21.961s-3.2383 16.078-9 21.961c-11.641 11.641-32.039 11.641-43.801 0l-69.238-69.238c-0.96094-0.96094-2.0391-1.3203-3-2.0391-1.9219-4.4414-4.3203-8.6406-7.1992-12.719v-0.60156l-0.23828 0.23828c-2.0391-2.8789-4.1992-5.7617-6.8398-8.2812-13.68-13.68-31.922-20.039-49.922-19.32 0.71875-18-5.6406-36.238-19.32-49.922-13.68-13.68-31.922-20.039-49.922-19.32 0-0.83984 0.23828-1.6797 0.23828-2.5195 0-17.879-6.9609-34.68-19.559-47.281-13.68-13.68-31.922-20.039-49.922-19.32 0.71875-18-5.6406-36.238-19.32-49.922-26.039-26.16-68.52-26.16-94.68 0l-20.398 20.398c-15.238-26.641-23.52-56.762-23.52-88.199 0-47.52 18.48-92.16 52.078-125.64 33.602-33.48 78.238-52.078 125.76-52.078 47.52 0 92.16 18.48 125.64 52.078l311.4 311.4c5.8789 5.8789 9.1211 13.68 9.1211 21.961zm-207.6 207.6c0 7.5586-2.6406 14.762-7.5586 20.398-5.1602 6-12.719 9.3594-21.121 9.6016-9.6016 0.23828-19.32-3.4805-26.281-10.32l-39.961-39.961 24.84-24.84c6.7188-6.7188 11.641-14.52 14.879-22.801l46.199 46.199c5.7617 5.7617 9 13.559 9 21.84zm-231.72 21.84c-12.121-12.121-12.121-31.68 0-43.801l92.52-92.52c6-6 13.922-9 21.84-9 7.9219 0 15.84 3 21.84 9 12.121 12.121 12.121 31.68 0 43.801l-92.52 92.52c-12.121 12.121-31.68 12.121-43.801 0zm-69.238-69.238c-12.121-12.121-12.121-31.68 0-43.801l92.52-92.52c6-6 13.922-9 21.84-9 7.9219 0 15.84 3 21.84 9 12.121 12.121 12.121 31.68 0 43.801l-92.52 92.52c-12.121 12-31.68 12-43.801 0zm-69.238-69.238c-5.8789-5.8789-9-13.559-9-21.84s3.2383-16.078 9-21.84l92.52-92.52c6-6 13.922-9 21.84-9 7.9219 0 15.84 3 21.84 9 5.8789 5.8789 9 13.559 9 21.84s-3.2383 16.078-9 21.84l-92.52 92.52c-11.641 11.641-32.039 11.641-43.801 0zm-69.238-112.92 92.52-92.52c6-6 13.922-9 21.84-9 7.9219 0 15.84 3 21.84 9 12.121 12.121 12.121 31.68 0 43.801l-92.52 92.52c-12.121 12.121-31.68 12.121-43.801 0s-12.121-31.68 0-43.801z"/>
</svg>
