<?xml version="1.0" encoding="UTF-8"?>
<!-- Generator: visioncortex VTracer -->
<svg id="svg" version="1.1" xmlns="http://www.w3.org/2000/svg" style="display: block;" viewBox="0 0 556 155"><path d="M0,0 L556,0 L556,155 L0,155 Z " transform="translate(0,0)" style="fill:rgba(3, 3, 3, 0);"/><path d="M0,0 L13,0 L13,95 L0,95 L0,87 L-1,87 L-1,88 L-2,88 L-2,90 L-3,90 L-3,91 L-4,91 L-4,92 L-5,92 L-5,93 L-6,93 L-6,94 L-8,94 L-8,95 L-40,95 L-40,94 L-42,94 L-42,93 L-43,93 L-43,92 L-44,92 L-44,91 L-45,91 L-45,90 L-46,90 L-46,88 L-47,88 L-47,86 L-48,86 L-48,36 L-47,36 L-47,33 L-46,33 L-46,32 L-45,32 L-45,31 L-44,31 L-44,30 L-43,30 L-43,29 L-42,29 L-42,28 L-40,28 L-40,27 L0,27 Z " transform="translate(226,16)" style="fill: #D9D9D9;"/><path d="M0,0 L45,0 L45,1 L48,1 L48,2 L49,2 L49,3 L50,3 L50,4 L51,4 L51,5 L52,5 L52,6 L53,6 L53,8 L54,8 L54,68 L42,68 L42,58 L41,58 L41,60 L40,60 L40,62 L39,62 L39,63 L38,63 L38,65 L36,65 L36,66 L35,66 L35,67 L33,67 L33,68 L4,68 L4,67 L2,67 L2,66 L1,66 L1,65 L0,65 L0,64 L-1,64 L-1,63 L-2,63 L-2,61 L-3,61 L-3,59 L-4,59 L-4,33 L-3,33 L-3,31 L-2,31 L-2,30 L-1,30 L-1,29 L0,29 L0,28 L1,28 L1,27 L2,27 L2,26 L4,26 L4,25 L42,25 L42,13 L0,13 Z " transform="translate(264,43)" style="fill: #DADADA;"/><path d="M0,0 L43,0 L43,1 L44,1 L44,2 L46,2 L46,3 L47,3 L47,4 L48,4 L48,5 L49,5 L49,7 L50,7 L50,24 L38,24 L38,13 L5,13 L5,55 L38,55 L38,44 L50,44 L50,61 L49,61 L49,62 L48,62 L48,63 L47,63 L47,64 L46,64 L46,65 L45,65 L45,66 L44,66 L44,67 L41,67 L41,68 L0,68 L0,67 L-2,67 L-2,66 L-3,66 L-3,65 L-4,65 L-4,64 L-5,64 L-5,62 L-6,62 L-6,61 L-7,61 L-7,58 L-8,58 L-8,9 L-7,9 L-7,7 L-6,7 L-6,5 L-5,5 L-5,4 L-4,4 L-4,3 L-3,3 L-3,2 L-2,2 L-2,1 L0,1 Z " transform="translate(26,43)" style="fill: #D9D9D9;"/><path d="M0,0 L13,0 L13,1 L14,1 L14,3 L15,3 L15,6 L16,6 L16,8 L17,8 L17,10 L18,10 L18,13 L19,13 L19,15 L20,15 L20,17 L21,17 L21,20 L22,20 L22,22 L23,22 L23,24 L24,24 L24,27 L25,27 L25,29 L26,29 L26,32 L27,32 L27,34 L28,34 L28,36 L29,36 L29,39 L30,39 L30,42 L31,42 L31,43 L32,43 L32,46 L34,46 L34,42 L35,42 L35,40 L36,40 L36,38 L37,38 L37,35 L38,35 L38,33 L39,33 L39,30 L40,30 L40,28 L41,28 L41,27 L42,27 L42,24 L43,24 L43,21 L44,21 L44,19 L45,19 L45,16 L46,16 L46,14 L47,14 L47,12 L48,12 L48,9 L49,9 L49,7 L50,7 L50,5 L51,5 L51,2 L52,2 L52,0 L65,0 L65,3 L64,3 L64,5 L63,5 L63,8 L62,8 L62,10 L61,10 L61,12 L60,12 L60,15 L59,15 L59,17 L58,17 L58,19 L57,19 L57,22 L56,22 L56,24 L55,24 L55,26 L54,26 L54,29 L53,29 L53,31 L52,31 L52,33 L51,33 L51,35 L50,35 L50,38 L49,38 L49,40 L48,40 L48,42 L47,42 L47,45 L46,45 L46,47 L45,47 L45,51 L44,51 L44,52 L43,52 L43,54 L42,54 L42,56 L41,56 L41,59 L40,59 L40,61 L39,61 L39,63 L38,63 L38,67 L37,67 L37,68 L36,68 L36,70 L35,70 L35,74 L34,74 L34,75 L33,75 L33,77 L32,77 L32,81 L31,81 L31,82 L30,82 L30,84 L29,84 L29,86 L28,86 L28,89 L27,89 L27,91 L26,91 L26,94 L25,94 L25,96 L12,96 L12,94 L13,94 L13,93 L14,93 L14,89 L15,89 L15,87 L16,87 L16,85 L17,85 L17,82 L18,82 L18,81 L19,81 L19,77 L20,77 L20,75 L21,75 L21,73 L22,73 L22,71 L23,71 L23,68 L24,68 L24,66 L25,66 L25,64 L26,64 L26,60 L25,60 L25,57 L24,57 L24,55 L23,55 L23,53 L22,53 L22,51 L21,51 L21,48 L20,48 L20,46 L19,46 L19,45 L18,45 L18,41 L17,41 L17,39 L16,39 L16,37 L15,37 L15,34 L14,34 L14,32 L13,32 L13,30 L12,30 L12,27 L11,27 L11,25 L10,25 L10,23 L9,23 L9,21 L8,21 L8,18 L7,18 L7,16 L6,16 L6,15 L5,15 L5,11 L4,11 L4,9 L3,9 L3,7 L2,7 L2,4 L1,4 L1,2 L0,2 Z " transform="translate(470,43)" style="fill: #D8D8D8;"/><path d="M0,0 L12,0 L12,21 L35,21 L35,34 L13,34 L13,76 L35,76 L35,89 L8,89 L8,88 L6,88 L6,87 L4,87 L4,86 L3,86 L3,84 L2,84 L2,83 L1,83 L1,80 L0,80 L0,34 L-17,34 L-17,21 L0,21 Z " transform="translate(421,22)" style="fill: #DADADA;"/><path d="M0,0 L35,0 L35,42 L0,42 Z " transform="translate(191,56)" style="fill: #010101;"/><path d="M0,0 L13,0 L13,95 L0,95 Z " transform="translate(339,16)" style="fill: #D9D9D9;"/><path d="M0,0 L12,0 L12,68 L0,68 Z " transform="translate(374,43)" style="fill: #DEDEDE;"/><path d="M0,0 L33,0 L33,17 L0,17 Z " transform="translate(273,81)" style="fill: #080808;"/><path d="M0,0 L14,0 L14,13 L0,13 Z " transform="translate(373,16)" style="fill: #D7D7D7;"/><path d="M0,0 L5,0 L5,3 L1,3 L1,4 L-3,4 L-3,5 L-5,5 L-5,6 L-8,6 L-8,7 L-9,7 L-9,8 L-11,8 L-11,9 L-12,9 L-12,10 L-14,10 L-14,11 L-15,11 L-15,12 L-16,12 L-16,13 L-17,13 L-17,14 L-18,14 L-18,15 L-19,15 L-19,17 L-20,17 L-20,18 L-21,18 L-21,19 L-22,19 L-22,21 L-23,21 L-23,23 L-24,23 L-24,25 L-25,25 L-25,28 L-26,28 L-26,32 L-27,32 L-27,35 L-29,35 L-29,29 L-28,29 L-28,25 L-27,25 L-27,23 L-26,23 L-26,21 L-25,21 L-25,19 L-24,19 L-24,17 L-23,17 L-23,16 L-22,16 L-22,14 L-21,14 L-21,13 L-20,13 L-20,12 L-19,12 L-19,11 L-18,11 L-18,10 L-17,10 L-17,9 L-16,9 L-16,8 L-14,8 L-14,7 L-13,7 L-13,6 L-12,6 L-12,5 L-10,5 L-10,4 L-8,4 L-8,3 L-6,3 L-6,2 L-3,2 L-3,1 L0,1 Z " transform="translate(121,39)" style="fill: #E1CE05;"/><path d="M0,0 L2,0 L2,1 L5,1 L5,2 L8,2 L8,3 L10,3 L10,4 L12,4 L12,5 L13,5 L13,6 L15,6 L15,7 L16,7 L16,8 L17,8 L17,9 L18,9 L18,10 L19,10 L19,11 L20,11 L20,12 L21,12 L21,14 L22,14 L22,15 L23,15 L23,17 L24,17 L24,19 L25,19 L25,21 L26,21 L26,24 L27,24 L27,28 L23,28 L23,24 L22,24 L22,20 L21,20 L21,19 L20,19 L20,17 L19,17 L19,15 L18,15 L18,14 L17,14 L17,13 L16,13 L16,12 L15,12 L15,11 L14,11 L14,10 L13,10 L13,9 L12,9 L12,8 L10,8 L10,7 L8,7 L8,6 L6,6 L6,5 L2,5 L2,4 L0,4 Z " transform="translate(134,45)" style="fill: #E2A403;"/><path d="M0,0 L1,0 L1,4 L-1,4 L-1,5 L-5,5 L-5,6 L-7,6 L-7,7 L-9,7 L-9,8 L-11,8 L-11,9 L-12,9 L-12,10 L-13,10 L-13,11 L-14,11 L-14,12 L-15,12 L-15,13 L-16,13 L-16,14 L-17,14 L-17,15 L-18,15 L-18,17 L-19,17 L-19,18 L-20,18 L-20,20 L-21,20 L-21,23 L-22,23 L-22,28 L-26,28 L-26,24 L-25,24 L-25,21 L-24,21 L-24,19 L-23,19 L-23,17 L-22,17 L-22,15 L-21,15 L-21,14 L-20,14 L-20,12 L-19,12 L-19,11 L-18,11 L-18,10 L-17,10 L-17,9 L-16,9 L-16,8 L-15,8 L-15,7 L-14,7 L-14,6 L-12,6 L-12,5 L-11,5 L-11,4 L-9,4 L-9,3 L-7,3 L-7,2 L-4,2 L-4,1 L0,1 Z " transform="translate(124,45)" style="fill: #E8C503;"/><path d="M0,0 L3,0 L3,2 L4,2 L4,5 L5,5 L5,8 L6,8 L6,10 L7,10 L7,11 L8,11 L8,12 L9,12 L9,13 L10,13 L10,15 L11,15 L11,16 L13,16 L13,17 L14,17 L14,18 L15,18 L15,19 L17,19 L17,20 L19,20 L19,21 L21,21 L21,22 L24,22 L24,23 L26,23 L26,26 L22,26 L22,25 L19,25 L19,24 L17,24 L17,23 L15,23 L15,22 L14,22 L14,21 L12,21 L12,20 L11,20 L11,19 L10,19 L10,18 L9,18 L9,17 L8,17 L8,16 L7,16 L7,15 L6,15 L6,14 L5,14 L5,13 L4,13 L4,11 L3,11 L3,9 L2,9 L2,7 L1,7 L1,4 L0,4 Z " transform="translate(99,83)" style="fill: #E55E02;"/><path d="M0,0 L4,0 L4,2 L3,2 L3,4 L2,4 L2,7 L1,7 L1,9 L0,9 L0,11 L-1,11 L-1,13 L-2,13 L-2,14 L-3,14 L-3,15 L-4,15 L-4,16 L-5,16 L-5,17 L-6,17 L-6,18 L-7,18 L-7,19 L-8,19 L-8,20 L-9,20 L-9,21 L-11,21 L-11,22 L-12,22 L-12,23 L-14,23 L-14,24 L-17,24 L-17,25 L-19,25 L-19,26 L-23,26 L-23,23 L-22,23 L-22,22 L-18,22 L-18,21 L-16,21 L-16,20 L-14,20 L-14,19 L-12,19 L-12,18 L-11,18 L-11,17 L-9,17 L-9,16 L-8,16 L-8,15 L-7,15 L-7,14 L-6,14 L-6,13 L-5,13 L-5,11 L-4,11 L-4,10 L-3,10 L-3,8 L-2,8 L-2,5 L-1,5 L-1,2 L0,2 Z " transform="translate(157,83)" style="fill: #E04D02;"/><path d="M0,0 L2,0 L2,4 L1,4 L1,7 L0,7 L0,10 L-1,10 L-1,13 L-2,13 L-2,15 L-3,15 L-3,17 L-4,17 L-4,18 L-5,18 L-5,19 L-6,19 L-6,21 L-7,21 L-7,22 L-8,22 L-8,23 L-9,23 L-9,24 L-10,24 L-10,25 L-11,25 L-11,26 L-13,26 L-13,27 L-14,27 L-14,28 L-15,28 L-15,29 L-17,29 L-17,30 L-19,30 L-19,31 L-21,31 L-21,32 L-24,32 L-24,33 L-27,33 L-27,31 L-25,31 L-25,30 L-23,30 L-23,29 L-20,29 L-20,28 L-18,28 L-18,27 L-16,27 L-16,26 L-15,26 L-15,25 L-13,25 L-13,24 L-12,24 L-12,23 L-11,23 L-11,22 L-10,22 L-10,21 L-9,21 L-9,20 L-8,20 L-8,18 L-7,18 L-7,17 L-6,17 L-6,15 L-5,15 L-5,14 L-4,14 L-4,11 L-3,11 L-3,9 L-2,9 L-2,7 L-1,7 L-1,1 L0,1 Z " transform="translate(165,81)" style="fill: #D24504;"/><path d="M0,0 L3,0 L3,33 L0,33 Z " transform="translate(128,87)" style="fill: #F1F3F0;"/><path d="M0,0 L3,0 L3,33 L0,33 Z " transform="translate(128,35)" style="fill: #EFF3EF;"/><path d="M0,0 L32,0 L32,3 L0,3 Z " transform="translate(87,76)" style="fill: #F7F9F7;"/><path d="M0,0 L32,0 L32,3 L0,3 Z " transform="translate(140,76)" style="fill: #F8FAF8;"/><path d="M0,0 L3,0 L3,1 L4,1 L4,2 L6,2 L6,3 L7,3 L7,4 L9,4 L9,5 L10,5 L10,6 L11,6 L11,7 L12,7 L12,8 L13,8 L13,9 L14,9 L14,10 L15,10 L15,11 L16,11 L16,12 L17,12 L17,14 L18,14 L18,15 L19,15 L19,17 L20,17 L20,19 L21,19 L21,21 L22,21 L22,24 L23,24 L23,28 L24,28 L24,32 L22,32 L22,30 L21,30 L21,26 L20,26 L20,22 L19,22 L19,20 L18,20 L18,18 L17,18 L17,16 L16,16 L16,15 L15,15 L15,14 L14,14 L14,12 L13,12 L13,11 L12,11 L12,10 L11,10 L11,9 L10,9 L10,8 L9,8 L9,7 L7,7 L7,6 L6,6 L6,5 L5,5 L5,4 L3,4 L3,3 L1,3 L1,2 L0,2 Z " transform="translate(143,42)" style="fill: #DB7105;"/><path d="M0,0 L2,0 L2,3 L3,3 L3,5 L4,5 L4,7 L5,7 L5,8 L6,8 L6,9 L7,9 L7,11 L8,11 L8,12 L9,12 L9,13 L10,13 L10,14 L11,14 L11,15 L12,15 L12,16 L13,16 L13,17 L14,17 L14,18 L16,18 L16,19 L18,19 L18,20 L19,20 L19,21 L21,21 L21,22 L23,22 L23,24 L20,24 L20,23 L18,23 L18,22 L16,22 L16,21 L14,21 L14,20 L13,20 L13,19 L12,19 L12,18 L11,18 L11,17 L10,17 L10,16 L8,16 L8,15 L7,15 L7,13 L6,13 L6,12 L5,12 L5,11 L4,11 L4,9 L3,9 L3,8 L2,8 L2,6 L1,6 L1,4 L0,4 L0,2 L-1,2 L-1,1 L0,1 Z " transform="translate(95,89)" style="fill: #DE5A03;"/><path d="M0,0 L2,0 L2,1 L4,1 L4,2 L5,2 L5,3 L6,3 L6,4 L7,4 L7,5 L8,5 L8,6 L9,6 L9,7 L10,7 L10,9 L11,9 L11,11 L7,11 L7,9 L6,9 L6,8 L5,8 L5,7 L4,7 L4,6 L3,6 L3,5 L2,5 L2,4 L0,4 Z " transform="translate(134,61)" style="fill: #D88F04;"/><path d="M0,0 L4,0 L4,1 L5,1 L5,3 L6,3 L6,4 L7,4 L7,5 L9,5 L9,6 L10,6 L10,7 L11,7 L11,10 L8,10 L8,9 L7,9 L7,8 L5,8 L5,7 L4,7 L4,6 L3,6 L3,4 L2,4 L2,3 L1,3 L1,2 L0,2 Z " transform="translate(114,83)" style="fill: #DA6404;"/><path d="M0,0 L2,0 L2,4 L0,4 L0,5 L-1,5 L-1,6 L-2,6 L-2,7 L-3,7 L-3,8 L-4,8 L-4,9 L-5,9 L-5,10 L-9,10 L-9,9 L-8,9 L-8,7 L-7,7 L-7,6 L-6,6 L-6,5 L-5,5 L-5,4 L-4,4 L-4,3 L-3,3 L-3,2 L-2,2 L-2,1 L0,1 Z " transform="translate(123,61)" style="fill: #E8AF03;"/><path d="M0,0 L4,0 L4,2 L3,2 L3,3 L2,3 L2,5 L1,5 L1,6 L0,6 L0,7 L-1,7 L-1,8 L-2,8 L-2,9 L-4,9 L-4,10 L-6,10 L-6,6 L-4,6 L-4,5 L-3,5 L-3,4 L-2,4 L-2,3 L-1,3 L-1,2 L0,2 Z " transform="translate(141,83)" style="fill: #E05C03;"/><path d="M0,0 L3,0 L3,1 L4,1 L4,2 L6,2 L6,3 L7,3 L7,4 L9,4 L9,5 L10,5 L10,6 L11,6 L11,7 L12,7 L12,8 L13,8 L13,9 L14,9 L14,10 L15,10 L15,11 L14,11 L14,12 L13,12 L13,11 L12,11 L12,10 L11,10 L11,9 L10,9 L10,8 L9,8 L9,7 L7,7 L7,6 L6,6 L6,5 L5,5 L5,4 L3,4 L3,3 L1,3 L1,2 L0,2 Z " transform="translate(143,42)" style="fill: #E1AD03;"/><path d="M0,0 L3,0 L3,1 L4,1 L4,4 L3,4 L3,5 L0,5 L0,4 L-1,4 L-1,1 L0,1 Z " transform="translate(128,75)" style="fill: #E56D03;"/></svg>