<?xml version="1.0" encoding="UTF-8"?>
<svg width="1200pt" height="1200pt" version="1.1" viewBox="0 0 1200 1200" xmlns="http://www.w3.org/2000/svg">
 <path d="m627.6 765.6c0-123.6 102-225.6 226.8-225.6 93.602 0 175.2 56.398 210 142.8 16.801-26.398 26.398-58.801 26.398-91.199 0-86.398-64.801-159.6-150-168l-20.398-1.1992-4.8008-22.801c-13.199-70.801-75.602-121.2-147.6-121.2-31.199 0-62.398 9.6016-85.199 27.602l-15.602 10.801-15.602-9.6016c-43.199-27.602-93.602-42-144-42-135.6 0-247.2 98.398-247.2 218.4 0 4.8008 0 9.6016 1.1992 13.199l2.3984 19.199-16.801 8.3984c-38.398 21.602-64.801 60-69.602 104.4-7.1992 73.199 46.801 138 118.8 146.4 27.602 3.6016 55.199-3.6016 80.398-18l16.801-9.6016 14.398 12c52.801 43.199 127.2 67.199 206.4 67.199h21.602c-5.9922-21.594-8.3906-40.793-8.3906-61.191zm451.2-15.602c1.1992 4.8008 1.1992 9.6016 1.1992 15.602 0 124.8-100.8 225.6-225.6 225.6-80.398 0-154.8-43.199-195.6-111.6-14.398 1.1992-30 2.3984-44.398 2.3984-85.199 0-164.4-24-226.8-69.602-31.199 14.398-64.801 20.398-97.199 16.801-50.398-4.8008-94.801-28.801-127.2-68.398-32.398-39.602-48-88.801-43.199-138 6-57.602 36-106.8 82.801-138v-1.1992c0-151.2 135.6-273.6 302.4-273.6 56.398 0 111.6 14.398 159.6 40.801 31.199-18 66-27.602 103.2-27.602 91.199 0 171.6 60 196.8 147.6 104.4 20.398 178.8 112.8 178.8 220.8 1.1992 57.598-22.801 116.4-64.801 158.4zm-225.6-158.4c-96 0-174 78-174 174 0 20.398 3.6016 40.801 10.801 58.801 4.8008 12 9.6016 22.801 16.801 36 32.398 49.199 86.398 79.199 146.4 79.199 93.602 0 169.2-73.199 174-166.8v-8.3984c0-12-1.1992-24-3.6016-36-15.598-78.004-87.598-136.8-170.4-136.8z"/>
 <path d="m848.4 739.2v-32.398c-8.3984 1.1992-14.398 7.1992-14.398 18 0 8.3984 7.1992 13.199 14.398 14.398zm15.602 85.199c8.3984 0 14.398-8.3984 14.398-18 0-12-6-16.801-14.398-19.199zm-74.398-93.598c0-34.801 26.398-57.602 58.801-60v-12c0-4.8008 2.3984-7.1992 7.1992-7.1992 6 0 7.1992 2.3984 7.1992 7.1992v12c16.801 0 46.801 6 46.801 27.602 0 10.801-7.1992 19.199-18 19.199-10.801 0-18-10.801-30-10.801v37.199c30 8.3984 60 21.602 60 58.801 0 40.801-33.602 60-60 62.398v12c0 4.8008-2.3984 7.1992-7.1992 7.1992-6 0-7.1992-3.6016-7.1992-7.1992v-10.801c-18-1.1992-60-6-60-31.199 0-12 8.3984-22.801 19.199-22.801 8.3984 0 22.801 12 40.801 12v-40.801c-43.203-13.199-57.602-28.797-57.602-52.797z"/>
</svg>
