<?xml version="1.0" encoding="UTF-8"?>
<svg width="1200pt" height="1200pt" version="1.1" viewBox="0 0 1200 1200" xmlns="http://www.w3.org/2000/svg">
 <path d="m469.16 1181.3v-504.83h-242.17v504.83zm520.54-117.9h-386.93c-9.3203 0-16.887-7.5547-16.887-16.887v-386.92c0-9.3359 7.5547-16.887 16.887-16.887h386.93c9.3203 0 16.887 7.5547 16.887 16.887v386.92c0 9.3359-7.5547 16.887-16.887 16.887zm-258.82-327.61c-16.723 16.723-27.082 39.84-27.082 65.355s10.344 48.633 27.082 65.355c16.738 16.723 39.84 27.082 65.355 27.082s48.633-10.359 65.355-27.082c16.738-16.723 27.082-39.84 27.082-65.355s-10.344-48.617-27.082-65.355c-16.723-16.723-39.84-27.082-65.355-27.082s-48.633 10.359-65.355 27.082zm65.355 6.6953c-16.195 0-30.871 6.582-41.48 17.191-10.609 10.598-17.18 25.277-17.18 41.469 0 16.195 6.5703 30.883 17.18 41.48 10.609 10.609 25.289 17.191 41.48 17.191 16.195 0 30.871-6.582 41.48-17.191 10.625-10.598 17.18-25.277 17.18-41.48 0-16.207-6.5703-30.871-17.18-41.469-10.609-10.609-25.289-17.191-41.48-17.191zm128.86 287.17c-6.8828-23.734-20.527-44.703-38.703-60.684-22.535-19.82-52.078-31.871-84.355-31.871-36.922 0-70.535 11.141-95.457 31.414-18.82 15.309-32.777 35.988-39.523 61.125h258.02zm-292.67 0c7.5273-36.164 26.5-65.746 52.938-87.246 30.996-25.227 72.09-39.059 116.69-39.059 40.789 0 78.125 15.223 106.65 40.281 25.199 22.156 43.492 52.066 51.133 86.008h13.012v-353.17h-353.17v353.17h12.746zm-248.68-881.08h-291.62l-71.898 251.04c15.207 21.789 38.184 40.395 65.141 54.254 0.73438 0.31641 1.4414 0.66797 2.1094 1.0742l1.0234 0.50391c31.883 15.777 68.816 24.871 104.94 24.871 40.508 0 84.809-7.9219 122.04-23.977 29.48-12.719 54.203-30.402 68.273-53.051zm487.48 333.39c41.52 17.91 90.656 26.742 135.36 26.742 32.906 0 66.418-6.6172 97.137-18.453v691.06h-600.77v-521.71c0-9.3359-7.5664-16.887-16.887-16.887h-275.94c-9.3203 0-16.875 7.5547-16.875 16.887v521.71h-97.543v-685.93c30.883 11.988 64.609 18.695 97.742 18.695 44.703 0 93.84-8.8164 135.36-26.742 28.559-12.316 53.723-29.051 71.836-50.324 18.125 21.273 43.277 38.008 71.836 50.324 41.52 17.926 90.645 26.742 135.36 26.742 41.219 0 83.395-10.383 119.85-28.422 28.094-13.895 52.902-32.398 71.445-54.305 18.141 21.41 43.402 38.234 72.102 50.629zm-88.723-84.504v-248.88h-364.99v254.7c14.07 22.648 38.793 40.332 68.273 53.051 37.227 16.066 81.523 23.977 122.04 23.977 36.141 0 73.062-9.0938 104.94-24.871 29.191-14.438 53.988-34.41 69.727-57.965zm33.766-248.89v249.32c14.07 22.648 38.793 40.344 68.273 53.051 37.227 16.078 81.535 23.977 122.04 23.977 36.141 0 73.062-9.082 104.94-24.859l0.45312-0.21484c0.66797-0.41797 1.375-0.75781 2.1094-1.0625 27.207-13.895 50.398-32.602 65.711-54.555l-71.785-245.66h-291.74zm287.45-33.75-0.003907-96.016h-1008v96.023h1008z" fill-rule="evenodd"/>
</svg>
