<?xml version="1.0" encoding="UTF-8"?>
<svg width="1200pt" height="1200pt" version="1.1" viewBox="0 0 1200 1200" xmlns="http://www.w3.org/2000/svg">
 <path d="m600.01 751.28-41.777 244.46c14.621-0.79297 28.637-1.2305 41.77-1.2305 13.137 0 27.152 0.4375 41.785 1.2305z"/>
 <path d="m474.13 614.37-53.43-227.64c-3.2891-1.0898-6.5664-2.2734-9.8438-3.4531-134.85 213.75-192.52 661.17-192.52 661.17s87.41-18.074 187.59-32.473l66.965-391.85c0.32031-1.8867 0.72656-3.7734 1.2344-5.75z"/>
 <path d="m810.2 652.4c-9.2812 7.5234-20.957 11.66-32.902 11.66-15.863 0-30.684-7.0547-40.66-19.367-3.0586-3.7812-5.5391-7.8828-7.418-12.223l64.844 379.49c100.18 14.398 187.58 32.473 187.58 32.473s-31.344-243.08-101.82-456.5c-18.891 20.656-41.945 41.996-69.629 64.461z"/>
 <path d="m744.37 571.12c45.992-37.203 69.039-64.582 80.277-80.992 4.918-7.1523 8.3789-13.293 10.828-18.504-8.0352-18.059-16.426-35.395-25.184-51.793-3.7148-1.8867-7.625-3.7031-11.699-5.3711-7.1836-3.0039-15.156-5.8008-23.824-8.3477l-41.707 177.7c3.0078-4.7539 6.8008-9.0391 11.309-12.691z"/>
 <path d="m704.15 148.92c13.398 57.527-22.379 115.02-79.906 128.42-57.527 13.395-115.02-22.379-128.42-79.906-13.398-57.531 22.379-115.03 79.906-128.42 57.527-13.398 115.02 22.375 128.42 79.906"/>
 <path d="m677.21 1146.6c5.3477 31.285 32.488 53.391 63.195 53.391 3.5859 0 7.2266-0.30078 10.883-0.92578 34.945-5.9766 58.43-39.141 52.453-74.082l-85.996-503.27c-0.41797-2.4492-1.0039-4.8203-1.6797-7.1523l51.691-220.26c10.902 2.8281 22.98 6.5586 34.422 11.359 15.809 6.4648 29.969 15.035 37.941 23.148 8.0938 8.543 10.336 13.641 10.609 22.332 0.0625 7.9648-3.1914 22.438-18.25 44.355-14.906 21.758-41.16 49.855-82.141 83.008-18.367 14.879-21.195 41.828-6.3125 60.195 8.457 10.434 20.816 15.848 33.277 15.852 9.4609 0 18.984-3.125 26.906-9.543 45.25-36.727 77.125-69.602 98.793-101.02 21.504-31.258 33.273-62.164 33.32-92.848 0.046876-17.418-4.043-34.148-10.969-48.508-12.246-25.309-31.695-42.859-51.426-55.777-29.844-19.301-62.082-29.602-87.52-36.141-25.398-6.4062-43.965-8.5625-45.273-8.7305-2.8242-0.32422-5.6094-0.35156-8.3438-0.13281-2.3398-0.39062-4.7109-0.65625-7.1445-0.65625h-251.3c-2.0312 0-4.0234 0.17969-5.9922 0.45312-10.426-2.6289-39.188-10.938-64.891-25.938-15.594-8.9609-29.723-20.184-38.844-32.176-9.1484-12.211-14.012-23.992-14.172-40.461 0.015625-12.941 3.4336-29.75 14.406-51.703 10.941-21.875 29.496-48.531 58.355-79.383 16.121-17.258 15.211-44.336-2.0625-60.473-17.27-16.133-44.34-15.219-60.473 2.0508-33.016 35.355-56.59 68.113-72.332 99.461-15.703 31.281-23.492 61.52-23.484 90.047-0.17188 37.742 14.172 70.711 33.707 94.914 29.48 36.566 68.316 57.023 99.395 70.137 11.457 4.75 21.961 8.4141 30.777 11.188l55.207 235.25c-0.67578 2.3281-1.2539 4.7031-1.6719 7.1445l-86.012 503.28c-5.9688 34.941 17.52 68.109 52.461 74.078 3.6602 0.62891 7.3047 0.92578 10.895 0.93359 30.699 0 57.836-22.098 63.184-53.379l73.855-432.19h6.6953z"/>
</svg>
