<?xml version="1.0" encoding="UTF-8"?>
<svg width="1200pt" height="1200pt" version="1.1" viewBox="0 0 1200 1200" xmlns="http://www.w3.org/2000/svg">
 <path d="m651.94 1.3125c-261.19 0-437.06 189-437.25 470.62 0 20.625-4.125 39.75-12.75 57l-86.625 177.38 74.062 2.625c10.312 0.1875 18.562 8.8125 18.562 19.312v129c2.0625 44.625 15.375 76.688 40.5 96.562 37.5 30 104.81 35.438 205.31 16.688 5.625-0.9375 11.438 0.375 15.75 4.125 4.3125 3.5625 6.9375 9.1875 6.9375 14.812v211.5h432v-395.62c0-6.375 3.375-12.562 8.8125-16.125 66-43.125 115.31-100.88 146.44-171.75 21.562-48.938 32.625-102.38 32.812-159.38 0.75-253.88-194.62-454.5-444.56-456.75zm-2.625 595.69c-140.06 0-254.06-114-254.06-254.25 0-140.06 114-254.06 254.06-254.06s254.44 113.81 254.44 254.06-114.19 254.25-254.44 254.25z"/>
 <path d="m762.38 235.12c-6.75 0-13.125 2.625-18 7.5l-146.81 146.81-63.938-64.125c-4.875-4.6875-11.062-7.5-18-7.5-6.75 0-13.125 2.625-18 7.5s-7.5 11.062-7.5 18c0 6.75 2.625 13.125 7.5 18l81.938 81.938c4.875 4.875 11.062 7.5 18 7.5 6.75 0 13.125-2.625 18-7.5l164.81-164.81c4.875-4.875 7.5-11.062 7.5-18 0-6.75-2.625-13.125-7.5-18-4.875-4.6875-11.25-7.3125-18-7.3125z"/>
</svg>
